<?xml version="1.0" encoding="UTF-8" standalone="no"?>
<svg
   xmlns:dc="http://purl.org/dc/elements/1.1/"
   xmlns:cc="http://creativecommons.org/ns#"
   xmlns:rdf="http://www.w3.org/1999/02/22-rdf-syntax-ns#"
   xmlns:svg="http://www.w3.org/2000/svg"
   xmlns="http://www.w3.org/2000/svg"
   xmlns:sodipodi="http://sodipodi.sourceforge.net/DTD/sodipodi-0.dtd"
   xmlns:inkscape="http://www.inkscape.org/namespaces/inkscape"
   xml:space="preserve"
   version="1.1"
   viewBox="0 0 446.78153 164.53699"
   id="svg2"
   inkscape:version="0.91 r13725"
   sodipodi:docname="julia-lab-logo.svg"
   width="446.78152"
   height="164.53699"><metadata
     id="metadata32"><rdf:RDF><cc:Work
         rdf:about=""><dc:format>image/svg+xml</dc:format><dc:type
           rdf:resource="http://purl.org/dc/dcmitype/StillImage" /><dc:title></dc:title></cc:Work></rdf:RDF></metadata><defs
     id="defs30" /><sodipodi:namedview
     pagecolor="#7c71d6"
     bordercolor="#666666"
     borderopacity="1"
     objecttolerance="10"
     gridtolerance="10"
     guidetolerance="10"
     inkscape:pageopacity="0.22352941"
     inkscape:pageshadow="2"
     inkscape:window-width="1680"
     inkscape:window-height="1006"
     id="namedview28"
     showgrid="false"
     inkscape:zoom="1.8109"
     inkscape:cx="278.95919"
     inkscape:cy="82.383066"
     inkscape:window-x="0"
     inkscape:window-y="0"
     inkscape:window-maximized="0"
     inkscape:current-layer="text4421"
     fit-margin-top="0"
     fit-margin-left="0"
     fit-margin-right="0"
     fit-margin-bottom="0"
     inkscape:snap-bbox="false" /><path
     style="fill:#ffffff;stroke:#ffffff;stroke-width:10.05632401;stroke-miterlimit:4;stroke-dasharray:none;stroke-opacity:1"
     d=""
     id="path4333"
     inkscape:connector-curvature="0" /><flowRoot
     xml:space="preserve"
     id="flowRoot4179"
     style="font-style:normal;font-variant:normal;font-weight:normal;font-stretch:normal;font-size:40px;line-height:125%;font-family:'Alfa Slab One';-inkscape-font-specification:'Alfa Slab One';letter-spacing:0px;word-spacing:0px;fill:#000000;fill-opacity:1;stroke:none;stroke-width:1px;stroke-linecap:butt;stroke-linejoin:miter;stroke-opacity:1"
     transform="translate(-3.7477158,-52.645599)"><flowRegion
       id="flowRegion4181"><rect
         id="rect4183"
         width="163.52458"
         height="109.7451"
         x="249.22194"
         y="80.715424"
         style="font-style:normal;font-variant:normal;font-weight:normal;font-stretch:normal;font-family:'Alfa Slab One';-inkscape-font-specification:'Alfa Slab One'" /></flowRegion><flowPara
       id="flowPara4185" /></flowRoot><text
     xml:space="preserve"
     style="font-style:normal;font-weight:normal;font-size:40px;line-height:125%;font-family:sans-serif;letter-spacing:0px;word-spacing:0px;fill:#000000;fill-opacity:1;stroke:none;stroke-width:1px;stroke-linecap:butt;stroke-linejoin:miter;stroke-opacity:1"
     x="524.1676"
     y="210.38057"
     id="text4255"
     sodipodi:linespacing="125%"><tspan
       sodipodi:role="line"
       id="tspan4257"
       x="524.1676"
       y="210.38057" /></text>
<text
     xml:space="preserve"
     style="font-style:normal;font-weight:normal;font-size:40px;line-height:125%;font-family:sans-serif;letter-spacing:0px;word-spacing:0px;fill:#000000;fill-opacity:1;stroke:none;stroke-width:1px;stroke-linecap:butt;stroke-linejoin:miter;stroke-opacity:1"
     x="273.76361"
     y="285.9082"
     id="text4259"
     sodipodi:linespacing="125%"><tspan
       sodipodi:role="line"
       id="tspan4261"
       x="273.76361"
       y="285.9082" /></text>
<text
     xml:space="preserve"
     style="font-style:normal;font-weight:normal;font-size:40px;line-height:125%;font-family:sans-serif;letter-spacing:0px;word-spacing:0px;fill:#000000;fill-opacity:1;stroke:none;stroke-width:1px;stroke-linecap:butt;stroke-linejoin:miter;stroke-opacity:1"
     x="343.00406"
     y="148.74759"
     id="text4409"
     sodipodi:linespacing="125%"><tspan
       sodipodi:role="line"
       id="tspan4411"
       x="343.00406"
       y="148.74759" /></text>
<flowRoot
     xml:space="preserve"
     id="flowRoot4413"
     style="font-style:normal;font-weight:normal;font-size:40px;line-height:125%;font-family:sans-serif;letter-spacing:0px;word-spacing:0px;fill:#000000;fill-opacity:1;stroke:none;stroke-width:1px;stroke-linecap:butt;stroke-linejoin:miter;stroke-opacity:1"
     transform="translate(-2.5140715,-2.7426944)"><flowRegion
       id="flowRegion4415"><rect
         id="rect4417"
         width="59.018234"
         height="73.212494"
         x="256.24371"
         y="64.457253" /></flowRegion><flowPara
       id="flowPara4419" /></flowRoot><g
     id="g4398"
     style="opacity:0.95;stroke-width:9;stroke-miterlimit:4;stroke-dasharray:none"
     transform="translate(-2.5140715,-2.7426944)"><path
       d="m 52.763676,134.77686 0,-68.936589 -20.422351,5.618375 0,73.306454 c -4e-6,3.86448 -0.297272,6.46558 -0.891804,7.80331 -0.594539,1.33769 -1.456616,2.00654 -2.58624,2.00657 -0.535087,-2e-5 -1.129624,-0.20811 -1.783608,-0.62427 -0.653989,-0.41619 -1.456617,-1.24854 -2.407873,-2.49706 -0.832351,-1.12964 -1.887651,-2.27413 -3.165908,-3.43345 -1.278249,-1.15936 -2.987541,-1.73904 -5.127883,-1.73902 -2.853771,-2e-5 -5.127875,0.71343 -6.8223186,2.14033 -1.694389,1.42697 -2.5416032,3.18088 -2.5416189,5.26174 1.57e-5,2.49708 1.5160848,4.63737 4.5482075,6.42101 3.032154,1.78359 7.401994,2.67539 13.109512,2.67542 4.221208,-2e-5 8.056003,-0.34188 11.504313,-1.02557 3.448301,-0.68379 6.406123,-2.03636 8.87348,-4.05772 2.467303,-2.02145 4.369825,-4.86037 5.707558,-8.51678 1.337679,-3.65641 2.006534,-8.45726 2.006566,-14.40265 z"
       id="path4371"
       inkscape:connector-curvature="0"
       style="fill:#252525;fill-rule:nonzero;stroke:#ffffff;stroke-width:9;stroke-linejoin:round;stroke-miterlimit:4;stroke-dasharray:none;stroke-opacity:1" /><path
       d="m 81.12835,67.80186 -20.333156,0 0,47.17655 c -4e-6,2.91324 0.609396,5.6481 1.828198,8.20463 1.218788,2.55651 2.898353,4.78603 5.038705,6.68855 2.140317,1.90251 4.637371,3.40372 7.491163,4.50361 2.85376,1.09989 5.945351,1.64984 9.274824,1.64984 2.853741,0 5.7967,-0.68372 8.828845,-2.05115 3.0321,-1.36744 5.885866,-3.18077 8.561341,-5.44002 l 0,6.24264 20.33315,0 0,-66.974612 -20.33315,0 0,48.335852 c -1.54585,2.37816 -3.359185,4.35499 -5.440024,5.93051 -2.080845,1.57553 -3.894176,2.36329 -5.440013,2.36328 -1.367408,2e-5 -2.645655,-0.25267 -3.834773,-0.75803 -1.189099,-0.50535 -2.229541,-1.1742 -3.121318,-2.00657 -0.891834,-0.83233 -1.590414,-1.82818 -2.09574,-2.98755 -0.505389,-1.15932 -0.758064,-2.39298 -0.758039,-3.70099 z"
       id="path4373"
       inkscape:connector-curvature="0"
       style="fill:#252525;fill-rule:nonzero;stroke:#ffffff;stroke-width:9;stroke-linejoin:round;stroke-miterlimit:4;stroke-dasharray:none;stroke-opacity:1" /><path
       d="m 150.40441,134.77686 0,-99.525636 -20.24396,5.618378 0,93.907038 z"
       id="path4375"
       inkscape:connector-curvature="0"
       style="fill:#252525;fill-rule:nonzero;stroke:#ffffff;stroke-width:9;stroke-linejoin:round;stroke-miterlimit:4;stroke-dasharray:none;stroke-opacity:1" /><path
       d="m 158.50205,71.458634 0,63.318226 20.33316,0 0,-68.936589 z"
       id="path4377"
       inkscape:connector-curvature="0"
       style="fill:#252525;fill-rule:nonzero;stroke:#ffffff;stroke-width:9;stroke-linejoin:round;stroke-miterlimit:4;stroke-dasharray:none;stroke-opacity:1" /><path
       d="m 221.73944,100.17481 0,19.35217 c -2.08092,1.54581 -3.96858,2.82406 -5.66297,3.83476 -1.69447,1.01072 -3.37403,1.51608 -5.03871,1.51607 -0.83237,1e-5 -1.60527,-0.25267 -2.31869,-0.75804 -0.71346,-0.50534 -1.36746,-1.1742 -1.96197,-2.00656 -0.59456,-0.83234 -1.05533,-1.82819 -1.3823,-2.98755 -0.32702,-1.15933 -0.49052,-2.36327 -0.49049,-3.61181 -3e-5,-1.60522 0.50534,-3.15102 1.51607,-4.63739 1.01068,-1.48627 2.33353,-2.88343 3.96854,-4.19149 1.63494,-1.30795 3.44829,-2.51189 5.44001,-3.61181 1.99166,-1.09986 3.9685,-2.06599 5.93051,-2.89837 z m 20.42235,34.60205 0,-50.208635 c -7e-5,-2.794225 -0.53514,-5.321006 -1.60525,-7.580355 -1.07023,-2.259179 -2.73493,-4.191423 -4.99411,-5.796737 -2.2593,-1.605183 -5.12794,-2.838847 -8.6059,-3.700992 -3.47809,-0.862013 -7.62498,-1.29306 -12.44067,-1.293123 -3.92397,7.5e-5 -7.63982,0.416253 -11.14761,1.248533 -3.50779,0.832413 -6.59938,1.962027 -9.27474,3.388857 -2.67543,1.426962 -4.8009,3.13625 -6.37641,5.12789 -1.57553,1.991748 -2.36329,4.146947 -2.36329,6.465592 0,2.49711 0.8918,4.563124 2.67542,6.198045 1.7836,1.635023 4.10229,2.452503 6.95608,2.452471 1.84305,4.4e-5 3.37398,-0.267495 4.5928,-0.802623 1.21879,-0.535039 2.15518,-1.248483 2.80919,-2.140335 0.65397,-0.891759 1.11474,-1.9322 1.3823,-3.121325 0.26753,-1.189023 0.4013,-2.407824 0.40132,-3.656401 -2e-5,-2.199733 0.62424,-4.07253 1.87278,-5.618379 1.24851,-1.545736 3.47803,-2.318632 6.68856,-2.318695 2.73484,6.3e-5 4.91975,0.891865 6.55477,2.67542 1.63493,1.783668 2.45242,4.8158 2.45246,9.096427 l 0,6.599373 -2.22951,0.535084 c -2.73491,0.832243 -5.4995,1.709182 -8.29383,2.63083 -2.79436,0.921529 -5.48464,1.932238 -8.07088,3.032139 -2.58626,1.099925 -5.00899,2.303859 -7.26822,3.611809 -2.25926,1.30801 -4.23609,2.79435 -5.93051,4.45903 -1.69443,1.66473 -3.03215,3.53752 -4.01313,5.61838 -0.98099,2.0809 -1.47147,4.39959 -1.47147,6.95609 0,2.49706 0.46076,4.8009 1.38229,6.9115 0.92153,2.1106 2.24438,3.93881 3.96855,5.48461 1.72414,1.54579 3.81988,2.7646 6.28723,3.6564 2.46731,0.8918 5.24676,1.33771 8.33839,1.33771 2.25922,0 4.22119,-0.1635 5.88591,-0.49049 1.66468,-0.327 3.16589,-0.78777 4.50363,-1.3823 1.33767,-0.59454 2.54161,-1.29312 3.61181,-2.09575 1.07013,-0.80262 2.17002,-1.67956 3.29968,-2.63083 l 0,5.35084 z"
       id="path4379"
       inkscape:connector-curvature="0"
       style="fill:#252525;fill-rule:nonzero;stroke:#ffffff;stroke-width:9;stroke-linejoin:round;stroke-miterlimit:4;stroke-dasharray:none;stroke-opacity:1" /><path
       style="fill:#6682df;stroke:#ffffff;stroke-width:9;stroke-linecap:butt;stroke-linejoin:round;stroke-miterlimit:4;stroke-dasharray:none;stroke-opacity:1"
       d="M 54.911842,48.179615 A 12.59599,12.59599 0 0 0 42.315852,35.583673 12.59599,12.59599 0 0 0 29.719862,48.179615 12.59599,12.59599 0 0 0 42.315852,60.775517 12.59599,12.59599 0 0 0 54.911842,48.179615 Z"
       id="path4361"
       inkscape:connector-curvature="0" /><path
       style="fill:#d5635c;stroke:#ffffff;stroke-width:9;stroke-linecap:butt;stroke-linejoin:round;stroke-miterlimit:4;stroke-dasharray:none;stroke-opacity:1"
       d="M 182.67376,48.179615 A 12.59599,12.59599 0 0 0 170.07777,35.583673 12.59599,12.59599 0 0 0 157.48178,48.179615 12.59599,12.59599 0 0 0 170.07777,60.775517 12.59599,12.59599 0 0 0 182.67376,48.179615 Z"
       id="path4363"
       inkscape:connector-curvature="0" /><path
       style="fill:#60ad51;stroke:#ffffff;stroke-width:9;stroke-linecap:butt;stroke-linejoin:round;stroke-miterlimit:4;stroke-dasharray:none;stroke-opacity:1"
       d="M 199.20599,19.838685 A 12.59599,12.59599 0 0 0 186.61,7.2426944 12.59599,12.59599 0 0 0 174.01401,19.838685 12.59599,12.59599 0 0 0 186.61,32.434675 12.59599,12.59599 0 0 0 199.20599,19.838685 Z"
       id="path4365"
       inkscape:connector-curvature="0" /><path
       style="fill:#aa79c1;stroke:#ffffff;stroke-width:9;stroke-linecap:butt;stroke-linejoin:round;stroke-miterlimit:4;stroke-dasharray:none;stroke-opacity:1"
       d="M 215.73823,48.179615 A 12.59599,12.59599 0 0 0 203.14224,35.583673 12.59599,12.59599 0 0 0 190.54625,48.179615 12.59599,12.59599 0 0 0 203.14224,60.775517 12.59599,12.59599 0 0 0 215.73823,48.179615 Z"
       id="path4367"
       inkscape:connector-curvature="0" /></g><g
     id="g4631"
     transform="translate(0,-2.3e-6)"><g
       transform="translate(-2.5140715,-2.7426944)"
       id="g4381"><path
         style="fill:#6682df;stroke:#4063d8;stroke-width:2.34080291;stroke-linecap:butt;stroke-linejoin:round;stroke-miterlimit:4;stroke-dasharray:none"
         d="M 54.911842,48.179615 A 12.59599,12.59599 0 0 0 42.315852,35.583673 12.59599,12.59599 0 0 0 29.719862,48.179615 12.59599,12.59599 0 0 0 42.315852,60.775517 12.59599,12.59599 0 0 0 54.911842,48.179615 Z"
         id="circle20"
         inkscape:connector-curvature="0" /><path
         style="fill:#d5635c;stroke:#cb3c33;stroke-width:2.34080291;stroke-linecap:butt;stroke-linejoin:round;stroke-miterlimit:4;stroke-dasharray:none"
         d="M 182.67376,48.179615 A 12.59599,12.59599 0 0 0 170.07777,35.583673 12.59599,12.59599 0 0 0 157.48178,48.179615 12.59599,12.59599 0 0 0 170.07777,60.775517 12.59599,12.59599 0 0 0 182.67376,48.179615 Z"
         id="circle22"
         inkscape:connector-curvature="0" /><path
         style="fill:#60ad51;stroke:#389826;stroke-width:2.34080291;stroke-linecap:butt;stroke-linejoin:round;stroke-miterlimit:4;stroke-dasharray:none"
         d="M 199.20599,19.838685 A 12.59599,12.59599 0 0 0 186.61,7.2426944 12.59599,12.59599 0 0 0 174.01401,19.838685 12.59599,12.59599 0 0 0 186.61,32.434675 12.59599,12.59599 0 0 0 199.20599,19.838685 Z"
         id="circle24"
         inkscape:connector-curvature="0" /><path
         style="fill:#aa79c1;stroke:#9558b2;stroke-width:2.34080291;stroke-linecap:butt;stroke-linejoin:round;stroke-miterlimit:4;stroke-dasharray:none"
         d="M 215.73823,48.179615 A 12.59599,12.59599 0 0 0 203.14224,35.583673 12.59599,12.59599 0 0 0 190.54625,48.179615 12.59599,12.59599 0 0 0 203.14224,60.775517 12.59599,12.59599 0 0 0 215.73823,48.179615 Z"
         id="circle26"
         inkscape:connector-curvature="0" /><g
         id="g4320"
         style="stroke-width:0.96843374;stroke-linejoin:round;stroke-miterlimit:4;stroke-dasharray:none"
         transform="matrix(0.62979951,0,0,0.62979951,3.8650188,2.911255)"><path
           style="fill:#252525;fill-rule:nonzero;stroke:none;stroke-width:0.96843374;stroke-linejoin:round;stroke-miterlimit:4;stroke-dasharray:none;stroke-opacity:1"
           inkscape:connector-curvature="0"
           id="path8"
           d="m 77.641625,209.37712 0,-109.457995 -32.42675,8.920895 0,116.3965 c -7e-6,6.13604 -0.472011,10.26608 -1.416013,12.39014 -0.944013,2.124 -2.312824,3.186 -4.106449,3.18604 -0.849615,-3e-5 -1.793625,-0.33043 -2.832025,-0.99121 -1.038409,-0.66084 -2.312826,-1.98245 -3.823238,-3.96485 -1.321612,-1.79365 -2.997225,-3.61088 -5.02685,-5.45166 -2.029613,-1.84084 -4.743638,-2.76125 -8.142088,-2.76123 -4.531237,-2e-5 -8.142075,1.1328 -10.8325245,3.39844 -2.6903625,2.26575 -4.035575,5.05062 -4.0356,8.35462 2.5e-5,3.96488 2.40725,7.36325 7.2216755,10.19533 4.814474,2.83199 11.752937,4.248 20.815374,4.24805 6.702463,-4e-5 12.791376,-0.54284 18.266626,-1.62841 5.475237,-1.08573 10.171687,-3.23335 14.089374,-6.44288 3.9176,-3.20967 6.938438,-7.71732 9.0625,-13.523 2.123975,-5.80567 3.185988,-13.4285 3.186038,-22.86862 z" /><path
           style="fill:#252525;fill-rule:nonzero;stroke:none;stroke-width:0.96843374;stroke-linejoin:round;stroke-miterlimit:4;stroke-dasharray:none;stroke-opacity:1"
           inkscape:connector-curvature="0"
           id="path10"
           d="m 122.67925,103.03375 -32.285125,0 0,74.90725 c -7e-6,4.62566 0.967603,8.9681 2.902825,13.02737 1.9352,4.05925 4.602025,7.59929 8.00049,10.62012 3.39841,3.02083 7.36325,5.40446 11.89452,7.15087 4.53122,1.74641 9.44007,2.61963 14.72663,2.61963 4.53119,0 9.20404,-1.08562 14.0185,-3.25684 4.81439,-2.17123 9.34562,-5.05045 13.59375,-8.6377 l 0,9.91211 32.28512,0 0,-106.34275 -32.28512,0 0,76.748 c -2.4545,3.77605 -5.33373,6.91488 -8.6377,9.4165 -3.30398,2.50164 -6.1832,3.75245 -8.63769,3.75244 -2.17118,2e-5 -4.20079,-0.40119 -6.08888,-1.20361 -1.88806,-0.8024 -3.54008,-1.8644 -4.95605,-3.18604 -1.41606,-1.32159 -2.52527,-2.90281 -3.32763,-4.74365 -0.80246,-1.84079 -1.20366,-3.7996 -1.20362,-5.87646 z" /><path
           style="fill:#252525;fill-rule:nonzero;stroke:none;stroke-width:0.96843374;stroke-linejoin:round;stroke-miterlimit:4;stroke-dasharray:none;stroke-opacity:1"
           inkscape:connector-curvature="0"
           id="path12"
           d="m 232.67625,209.37712 0,-158.027495 -32.1435,8.9209 0,149.106245 z" /><path
           style="fill:#252525;fill-rule:nonzero;stroke:none;stroke-width:0.96843374;stroke-linejoin:round;stroke-miterlimit:4;stroke-dasharray:none;stroke-opacity:1"
           inkscape:connector-curvature="0"
           id="path14"
           d="m 245.53375,108.84 0,100.53712 32.28512,0 0,-109.457995 z" /><path
           style="fill:#252525;fill-rule:nonzero;stroke:none;stroke-width:0.96843374;stroke-linejoin:round;stroke-miterlimit:4;stroke-dasharray:none;stroke-opacity:1"
           inkscape:connector-curvature="0"
           id="path16"
           d="m 345.9425,154.43575 0,30.7275 c -3.30409,2.45445 -6.30133,4.48407 -8.99169,6.08886 -2.69049,1.60483 -5.35731,2.40724 -8.0005,2.40723 -1.32165,1e-5 -2.54886,-0.40119 -3.68163,-1.20362 -1.13285,-0.80239 -2.17127,-1.86441 -3.11524,-3.18603 -0.94404,-1.3216 -1.67565,-2.90282 -2.19482,-4.74365 -0.51925,-1.8408 -0.77885,-3.75242 -0.77881,-5.73487 -4e-5,-2.54878 0.80238,-5.00321 2.40723,-7.36327 1.60477,-2.35991 3.7052,-4.57834 6.30127,-6.65528 2.59598,-2.07677 5.47522,-3.9884 8.63769,-5.73486 3.16237,-1.74637 6.30121,-3.28039 9.4165,-4.60205 z m 32.42675,54.94137 0,-79.72162 c -1e-4,-4.43669 -0.8497,-8.44873 -2.54883,-12.03614 -1.69931,-3.58714 -4.34253,-6.65517 -7.92968,-9.2041 -3.58733,-2.54872 -8.14218,-4.50754 -13.6645,-5.87646 -5.52254,-1.36871 -12.107,-2.05313 -19.75338,-2.05323 -6.23051,1.2e-4 -12.13056,0.66093 -17.70025,1.98243 -5.5697,1.32171 -10.47855,3.11532 -14.7265,5.38085 -4.24806,2.26574 -7.6229,4.97976 -10.12451,8.1421 -2.50164,3.16251 -3.75245,6.58455 -3.75245,10.26611 0,3.96493 1.41601,7.24536 4.24805,9.8413 2.83202,2.5961 6.51365,3.8941 11.04492,3.89405 2.9264,7e-5 5.35723,-0.42473 7.29248,-1.27441 1.9352,-0.84954 3.42201,-1.98235 4.46045,-3.39844 1.03837,-1.41594 1.76999,-3.06796 2.19482,-4.95606 0.42478,-1.88794 0.63718,-3.82316 0.63722,-5.80566 -4e-5,-3.49275 0.99117,-6.46639 2.97362,-8.9209 1.98239,-2.45433 5.52243,-3.68154 10.62013,-3.68164 4.3424,1e-4 7.81162,1.41611 10.40771,4.24805 2.59596,2.83212 3.89397,7.64656 3.89404,14.44337 l 0,10.47853 -3.54004,0.84961 c -4.3425,1.32144 -8.73214,2.71385 -13.169,4.17725 -4.4369,1.46321 -8.70854,3.06802 -12.815,4.81445 -4.10648,1.74647 -7.95331,3.65809 -11.54053,5.73486 -3.58726,2.07686 -6.72608,4.43689 -9.4165,7.08008 -2.69043,2.64326 -4.81446,5.6169 -6.37207,8.9209 -1.55762,3.30406 -2.33642,6.9857 -2.33642,11.04492 0,3.96486 0.73161,7.6229 2.19482,10.97413 1.46321,3.35123 3.56364,6.25407 6.30128,8.7085 2.73761,2.45442 6.06523,4.38965 9.98291,5.80566 3.91761,1.41601 8.33085,2.12402 13.23975,2.12402 3.58721,1e-5 6.70244,-0.2596 9.3457,-0.7788 2.64319,-0.51921 5.02681,-1.25082 7.15089,-2.19483 2.12396,-0.94401 4.03558,-2.05322 5.73486,-3.32764 1.69916,-1.2744 3.44557,-2.66681 5.23925,-4.17725 l 0,8.4961 z" /></g></g><g
       style="font-style:normal;font-variant:normal;font-weight:normal;font-stretch:normal;font-size:40px;line-height:0%;font-family:'Serto Jerusalem Outline';-inkscape-font-specification:'Serto Jerusalem Outline';letter-spacing:0px;word-spacing:0px;opacity:0.95;fill:#ffffff;fill-opacity:1;stroke:#ffffff;stroke-width:0.89999998;stroke-linecap:butt;stroke-linejoin:miter;stroke-miterlimit:4;stroke-dasharray:none;stroke-opacity:1"
       id="text4421"><path
         d="m 279.09082,130.68819 q 0,5.29785 -6.49414,5.29785 l -19.31152,0 q -6.49414,0 -6.49414,-5.29785 0,-4.01612 3.84521,-4.95606 1.45264,-0.42724 7.00684,-0.42724 l 0,-89.379887 q -5.5542,0 -7.00684,-0.427246 -3.84521,-0.939941 -3.84521,-4.956055 0,-5.297851 6.49414,-5.297851 l 13.24463,0 q 1.70898,0 1.70898,1.708984 l 0,98.352055 q 5.5542,0 7.00684,0.42724 3.84521,0.93994 3.84521,4.95606 z m -3.41797,0 q 0,-2.05078 -3.41797,-2.05078 -0.68359,0 -2.13623,0.0854 -1.45263,0.0855 -2.05078,0.0855 -3.24707,0 -3.24707,-1.79443 l 0,-98.352051 -11.70654,0 q -2.90528,0 -2.90528,1.879883 0,2.050782 3.41797,2.050782 0.6836,0 2.13623,-0.08545 1.45264,-0.08545 2.05078,-0.08545 3.24708,0 3.24708,1.794434 l 0,92.797852 q 0,1.79443 -3.24708,1.79443 -0.59814,0 -2.05078,-0.0855 -1.45263,-0.0854 -2.13623,-0.0854 -3.41797,0 -3.41797,2.05078 0,1.87988 2.90528,1.87988 l 19.48242,0 q 3.07617,0 3.07617,-1.87988 z"
         style="letter-spacing:-21.20000076px;fill:#ffffff;fill-opacity:1;stroke:#ffffff;stroke-width:0.89999998;stroke-miterlimit:4;stroke-dasharray:none;stroke-opacity:1"
         id="path4597"
         inkscape:connector-curvature="0" /><path
         d="m 356.15742,130.60274 q 0,5.29785 -6.49414,5.29785 l -12.56103,0 q -1.70899,0 -1.87989,-3.16162 0.1709,2.47803 0.1709,-4.35791 -13.41553,10.08301 -28.45459,10.08301 -10.9375,0 -18.28613,-5.46875 -8.20313,-6.0669 -8.20313,-16.57715 0,-12.81739 11.96289,-19.653323 9.82666,-5.554199 23.66944,-5.554199 8.63037,0 19.31152,2.050781 l 0,-8.459473 q 0,-6.066894 -6.32324,-9.057617 -4.87061,-2.392578 -11.70654,-2.392578 -3.41797,0 -19.73877,4.272461 -3.33252,0.939941 -4.61426,0.939941 -4.69971,0 -4.69971,-4.956054 0,-1.708985 1.11084,-3.247071 1.70899,-2.050781 13.33008,-4.614258 10.5957,-2.392578 14.95361,-2.392578 10.7666,0 18.62793,5.212403 9.05762,6.066894 9.05762,16.235351 l -0.0855,40.417484 q 5.5542,0 7.00684,0.42724 3.84521,1.02539 3.84521,4.95606 z m -3.41797,0 q 0,-2.05078 -3.58886,-2.05078 -0.59815,0 -1.96534,0.0854 -1.36718,0.0854 -2.05078,0.0854 -3.24707,0 -3.24707,-1.79443 l 0.0854,-42.126464 q 0,-8.71582 -8.11767,-13.671875 -6.92139,-4.35791 -16.14991,-4.35791 -4.18701,0 -14.44092,2.22168 -11.53564,2.478027 -11.53564,4.614258 0,1.538085 1.28174,1.538085 1.11084,0 9.91211,-2.563476 9.31396,-2.648926 14.44092,-2.648926 8.37402,0 14.18457,3.24707 7.26318,3.930664 7.26318,11.621094 l 0,10.510254 q 0,1.708984 -1.62354,1.708984 l -0.42724,0 q -1.36719,-0.170898 -10.33936,-1.452636 -6.23779,-0.939942 -10.33935,-0.939942 -12.30469,0 -21.10596,4.699707 -11.1084,5.895997 -11.1084,17.089847 0,9.05761 7.26319,14.09912 6.32324,4.52881 15.8081,4.52881 14.35547,0 29.05274,-11.53565 0.76904,-0.51269 1.36718,-0.51269 1.45264,0 1.45264,1.87988 l 0,7.60498 10.85205,0 q 3.07617,0 3.07617,-1.87988 z m -13.92822,-14.35547 -0.5127,1.19629 q -15.12451,14.52636 -31.61621,14.52636 -8.11767,0 -13.50097,-3.67431 -6.2378,-4.18701 -6.2378,-11.87744 0,-9.65576 10.68116,-14.78272 8.28857,-3.930662 19.14062,-3.930662 22.0459,0 22.0459,4.272462 l 0,14.27002 z m -3.41797,-0.76904 0,-12.21924 q -8.20312,-2.13623 -18.62793,-2.13623 -9.22851,0 -16.6626,3.16162 -9.74121,4.18701 -9.74121,12.13379 0,6.23779 5.29785,9.39941 4.35791,2.73438 11.02295,2.73438 14.86817,0 28.71094,-13.07373 z"
         style="letter-spacing:-19.02999878px;fill:#ffffff;fill-opacity:1;stroke-width:0.89999998;stroke-miterlimit:4;stroke-dasharray:none"
         id="path4599"
         inkscape:connector-curvature="0" /><path
         d="m 446.33153,102.14815 q 0,15.72265 -11.1084,26.66015 -11.02295,10.9375 -26.74561,10.9375 -16.74804,0 -27.94189,-12.13379 0,8.11768 0.1709,4.95606 -0.1709,3.33252 -1.87989,3.33252 l -13.24462,0 q -6.49414,0 -6.49414,-5.29785 0,-3.93067 3.84521,-4.95606 1.45264,-0.42724 7.00684,-0.42724 l 0,-88.781742 q -5.5542,0 -7.00684,-0.427246 -3.84521,-1.02539 -3.84521,-4.956054 0,-5.297852 6.49414,-5.297852 l 13.24462,0 q 1.70899,0 1.70899,1.708984 l 0.0854,49.21875 q 11.19385,-12.048339 27.85644,-12.048339 15.72266,0 26.74561,10.9375 11.1084,10.9375 11.1084,26.574709 z m -3.41797,0 q 0,-14.270022 -10.08301,-24.182131 -10.08301,-9.91211 -24.35303,-9.91211 -16.3208,0 -28.19824,14.355469 -0.76904,1.025391 -1.62353,1.025391 -1.45264,0 -1.45264,-1.965332 l -0.0854,-52.294922 -11.53564,0 q -3.07618,0 -3.07618,1.879883 0,2.050781 3.58887,2.050781 0.59815,0 1.96533,-0.08545 1.36719,-0.08545 2.05078,-0.08545 3.24707,0 3.24707,1.794434 l 0,92.199707 q 0,1.79443 -3.24707,1.79443 -0.68359,0 -2.05078,-0.0854 -1.36718,-0.0854 -1.96533,-0.0854 -3.58887,0 -3.58887,2.05078 0,1.87988 3.07618,1.87988 l 11.53564,0 0,-9.65576 q 0,-1.96533 1.53809,-1.96533 0.76904,0 1.53808,1.02539 11.87744,14.44092 28.28369,14.44092 14.35547,0 24.35303,-9.91211 10.08301,-9.99756 10.08301,-24.26758 z m -3.07617,0 q 0,13.07373 -9.22852,22.0459 -9.14306,8.97216 -22.2168,8.97216 -12.98828,0 -22.21679,-8.97216 -9.14307,-9.05762 -9.14307,-22.0459 0,-12.988284 9.14307,-21.960452 9.22851,-9.057617 22.21679,-9.057617 13.07374,0 22.2168,9.057617 9.22852,8.972168 9.22852,21.960452 z m -3.41797,0 q 0,-11.535647 -8.20313,-19.567874 -8.20312,-8.032226 -19.82422,-8.032226 -11.53564,0 -19.73876,8.032226 -8.20313,8.032227 -8.20313,19.567874 0,11.53564 8.20313,19.56787 8.20312,8.03223 19.73876,8.03223 11.70655,0 19.82422,-7.94678 8.20313,-8.03223 8.20313,-19.65332 z"
         style="letter-spacing:-15.71999931px;fill:#ffffff;fill-opacity:1;stroke:#ffffff;stroke-width:0.89999998;stroke-miterlimit:4;stroke-dasharray:none;stroke-opacity:1"
         id="path4601"
         inkscape:connector-curvature="0" /></g></g></svg>